# xmcd CD database file
#
# Track frame offsets:
#	150
#	21564
#	35655
#	52382
#	69759
#	91458
#	109587
#	121106
#	143882
#	166105
#	191838
#	211259
#
# Disc length: 3062 seconds
#
# Revision: 0
# Processed by: cddbd v1.5.2PL0 Copyright (c) Steve Scherf et al.
# Submitted via: CDex 1.70beta2
#
DISCID=ab0bf40c
DTITLE=Maria Baptist - Self-Portrait (Piano Solo)
DYEAR=2014
DGENRE=Jazz
TTITLE0=Roof Garden
TTITLE1=Falling Night
TTITLE2=Blue Hour
TTITLE3=Running
TTITLE4=The Day before I met you
TTITLE5=Jazz Fugue in A-flat minor
TTITLE6=Portrait of a Woman
TTITLE7=The Moon stood still
TTITLE8=AVUS
TTITLE9=Cloud 9
TTITLE10=Piano Ballad
TTITLE11=A Morning in New York
EXTD=YEAR: 2014
EXTT0=
EXTT1=
EXTT2=
EXTT3=
EXTT4=
EXTT5=
EXTT6=
EXTT7=
EXTT8=
EXTT9=
EXTT10=
EXTT11=
PLAYORDER=
